<svg width="24" height="24" viewBox="0 0 24 24" fill="none" xmlns="http://www.w3.org/2000/svg">
<path fill-rule="evenodd" clip-rule="evenodd" d="M6.29361 9.88997C8.31233 8.59937 11.7042 7.01309 15.3396 7.00008C15.3691 6.99998 15.3984 7.00655 15.4251 7.01919L19.857 9.11426C19.9408 9.15386 19.9872 9.2449 19.9628 9.33429C19.688 10.3406 18.5175 12.6429 15.0657 13.4842C15.0236 13.4945 14.9802 13.4914 14.9405 13.4741C14.0978 13.1064 12.9165 12.5928 11.6479 12.1033L8.24426 15.0207C8.40711 15.3102 8.5 15.6442 8.5 16C8.5 17.1046 7.60457 18 6.5 18C5.39543 18 4.5 17.1046 4.5 16C4.5 14.8954 5.39543 14 6.5 14C6.88548 14 7.24549 14.1091 7.55085 14.298L10.5763 11.7047C9.14967 11.1957 7.70203 10.773 6.56767 10.6627C6.33346 10.6399 6.09536 10.0167 6.29361 9.88997ZM6.5 17C7.05228 17 7.5 16.5523 7.5 16C7.5 15.4477 7.05228 15 6.5 15C5.94772 15 5.5 15.4477 5.5 16C5.5 16.5523 5.94772 17 6.5 17Z" fill="#47495F"/>
<path fill-rule="evenodd" clip-rule="evenodd" d="M19.5 16C19.5 17.1046 18.6046 18 17.5 18C16.3954 18 15.5 17.1046 15.5 16C15.5 14.8954 16.3954 14 17.5 14C18.6046 14 19.5 14.8954 19.5 16ZM18.5 16C18.5 16.5523 18.0523 17 17.5 17C16.9477 17 16.5 16.5523 16.5 16C16.5 15.4477 16.9477 15 17.5 15C18.0523 15 18.5 15.4477 18.5 16Z" fill="#47495F"/>
</svg>
