<svg width="24" height="24" viewBox="0 0 24 24" fill="none" xmlns="http://www.w3.org/2000/svg">
<path fill-rule="evenodd" clip-rule="evenodd" d="M5 12L5 14.6771C4.68882 15.0297 4.5 15.4928 4.5 16C4.5 17.1046 5.39543 18 6.5 18C7.60457 18 8.5 17.1046 8.5 16C8.5 15.791 8.46793 15.5894 8.40844 15.4H15.5916C15.5321 15.5894 15.5 15.791 15.5 16C15.5 17.1046 16.3954 18 17.5 18C18.6046 18 19.5 17.1046 19.5 16C19.5 15.4928 19.3112 15.0297 19 14.6771V8C19 7.44772 18.5523 7 18 7H10C7.23858 7 5 9.23858 5 12ZM6.5 15C5.94772 15 5.5 15.4477 5.5 16C5.5 16.5523 5.94772 17 6.5 17C7.05228 17 7.5 16.5523 7.5 16C7.5 15.4477 7.05228 15 6.5 15ZM16.5 16C16.5 15.4477 16.9477 15 17.5 15C18.0523 15 18.5 15.4477 18.5 16C18.5 16.5523 18.0523 17 17.5 17C16.9477 17 16.5 16.5523 16.5 16Z" fill="#47495F"/>
</svg>
