<svg width="24" height="24" viewBox="0 0 24 24" fill="none" xmlns="http://www.w3.org/2000/svg">
<path fill-rule="evenodd" clip-rule="evenodd" d="M16.1771 17.5H6.91667C5.85812 17.5 5 16.6419 5 15.5833C5 10.2906 9.2906 6 14.5833 6H16C17.6569 6 19 7.34315 19 9V14.6771C19.3112 15.0297 19.5 15.4928 19.5 16C19.5 17.1046 18.6046 18 17.5 18C16.9928 18 16.5297 17.8112 16.1771 17.5ZM10.4814 11.2883C9.2288 12.5604 8.64656 14.086 8.49426 15.076C8.45227 15.349 8.19697 15.5362 7.92404 15.4942C7.65111 15.4522 7.4639 15.1969 7.50588 14.924C7.68691 13.7473 8.35467 12.0229 9.76879 10.5867C11.1963 9.13689 13.3664 8 16.5001 8C16.7762 8 17.0001 8.22386 17.0001 8.5C17.0001 8.77614 16.7762 9 16.5001 9C13.6337 9 11.7205 10.0298 10.4814 11.2883ZM16.5 16C16.5 15.4477 16.9477 15 17.5 15C18.0523 15 18.5 15.4477 18.5 16C18.5 16.5523 18.0523 17 17.5 17C16.9477 17 16.5 16.5523 16.5 16Z" fill="#47495F"/>
</svg>
