<svg width="24" height="24" viewBox="0 0 24 24" fill="none" xmlns="http://www.w3.org/2000/svg">
<path fill-rule="evenodd" clip-rule="evenodd" d="M15.5 4C15.5 3.72386 15.2761 3.5 15 3.5C14.7239 3.5 14.5 3.72386 14.5 4V7.99999L8 7.99999C7.44772 7.99999 7 8.44771 7 8.99999L7 14.2676C6.4022 14.6134 6 15.2597 6 16C6 17.1046 6.89543 18 8 18C9.10457 18 10 17.1046 10 16C10 15.791 9.96793 15.5894 9.90844 15.4H14.0916C14.0321 15.5894 14 15.791 14 16C14 17.1046 14.8954 18 16 18C17.1046 18 18 17.1046 18 16C18 15.2597 17.5978 14.6134 17 14.2676V8.99999C17 8.44771 16.5523 7.99999 16 7.99999H15.5V4ZM7 16C7 15.4477 7.44772 15 8 15C8.55228 15 9 15.4477 9 16C9 16.5523 8.55228 17 8 17C7.44772 17 7 16.5523 7 16ZM16 15C15.4477 15 15 15.4477 15 16C15 16.5523 15.4477 17 16 17C16.5523 17 17 16.5523 17 16C17 15.4477 16.5523 15 16 15Z" fill="#47495F"/>
</svg>
