<svg width="24" height="24" viewBox="0 0 24 24" fill="none" xmlns="http://www.w3.org/2000/svg">
<path d="M6 5C7.10457 5 8 5.89543 8 7C8 7.40496 7.87964 7.78181 7.67275 8.09672L10.0543 10.7164C10.5781 10.2697 11.2576 10 12 10C12.6479 10 13.2479 10.2054 13.7383 10.5546L15.6464 8.64645C15.8417 8.45118 16.1583 8.45118 16.3536 8.64645C16.5488 8.84171 16.5488 9.15829 16.3536 9.35355L14.4454 11.2617C14.7946 11.7521 15 12.3521 15 13C15 13.982 14.5282 14.8538 13.7988 15.4011L14.4389 17.0012C14.4592 17.0004 14.4795 17 14.5 17C15.3284 17 16 17.6716 16 18.5C16 19.3284 15.3284 20 14.5 20C13.6716 20 13 19.3284 13 18.5C13 18.0507 13.1975 17.6476 13.5104 17.3727L12.9057 15.8609C12.6199 15.9512 12.3157 16 12 16C10.3431 16 9 14.6569 9 13C9 12.4497 9.14815 11.9341 9.40674 11.4907L6.93293 8.76953C6.6544 8.91668 6.33693 9 6 9C4.89543 9 4 8.10457 4 7C4 5.89543 4.89543 5 6 5Z" fill="#47495F"/>
<path d="M18.5 5C19.3284 5 20 5.67157 20 6.5C20 7.32843 19.3284 8 18.5 8C17.6716 8 17 7.32843 17 6.5C17 5.67157 17.6716 5 18.5 5Z" fill="#47495F"/>
</svg>
