<svg width="24" height="24" viewBox="0 0 24 24" fill="none" xmlns="http://www.w3.org/2000/svg">
<path fill-rule="evenodd" clip-rule="evenodd" d="M11.5011 15.9668C10.0965 15.7878 8 14.8373 8 12C8 8.8 10.6667 6.66667 12 6C13.3333 6.66667 16 8.8 16 12C16 14.8373 13.9036 15.7878 12.4989 15.9668C12.4996 15.9778 12.5 15.9889 12.5 16V19C12.5 19.2761 12.2761 19.5 12 19.5C11.7239 19.5 11.5 19.2761 11.5 19L11.5 16C11.5 15.9889 11.5004 15.9778 11.5011 15.9668ZM12 11.5C12.2761 11.5 12.5 11.7239 12.5 12L12.5 14.3442C12.5 14.6204 12.2761 14.8442 12 14.8442C11.7239 14.8442 11.5 14.6204 11.5 14.3442L11.5 12C11.5 11.7239 11.7239 11.5 12 11.5Z" fill="#47495F"/>
</svg>
