<svg width="24" height="24" viewBox="0 0 24 24" fill="none" xmlns="http://www.w3.org/2000/svg">
<path d="M5.5 11C5.5 8.51472 7.51472 6.5 10 6.5C12.2835 6.5 14.1697 8.20085 14.461 10.4048C14.462 10.4121 14.4629 10.4195 14.4638 10.4269C14.4877 10.6145 14.5 10.8058 14.5 11C14.5 12.2317 14.0051 13.3478 13.2034 14.1604C12.4974 14.8759 11.5535 15.3561 10.5 15.4725L10.5 19C10.5 19.2761 10.2761 19.5 10 19.5C9.72386 19.5 9.5 19.2761 9.5 19L9.5 15.4725C7.25002 15.2238 5.5 13.3163 5.5 11Z" fill="#47495F"/>
<path d="M15.5 16.4645C14.6651 16.345 13.9254 15.9307 13.3898 15.3315C14.6745 14.3247 15.5 12.7588 15.5 11C15.5 10.5046 15.4345 10.0244 15.3117 9.56779C15.5346 9.52329 15.7648 9.5 16.0001 9.5C17.9331 9.5 19.5001 11.067 19.5001 13C19.5001 14.7633 18.1962 16.222 16.5 16.4646V19C16.5 19.2761 16.2761 19.5 16 19.5C15.7239 19.5 15.5 19.2761 15.5 19V16.4645Z" fill="#47495F"/>
</svg>
