<svg width="24" height="24" viewBox="0 0 24 24" fill="none" xmlns="http://www.w3.org/2000/svg">
<path d="M10.6911 12.5L10.0001 11.118L9.30913 12.5H10.6911Z" fill="#47495F"/>
<path fill-rule="evenodd" clip-rule="evenodd" d="M7 5C5.89543 5 5 5.89543 5 7V17C5 18.1046 5.89543 19 7 19H17C18.1046 19 19 18.1046 19 17V7C19 5.89543 18.1046 5 17 5H7ZM10.4473 9.77639C10.3626 9.607 10.1895 9.5 10.0001 9.5C9.81072 9.5 9.63759 9.607 9.5529 9.77639L7.5529 13.7764C7.4294 14.0234 7.52951 14.3237 7.7765 14.4472C8.02349 14.5707 8.32383 14.4706 8.44732 14.2236L8.80913 13.5H11.1911L11.5529 14.2236C11.6764 14.4706 11.9767 14.5707 12.2237 14.4472C12.4707 14.3237 12.5708 14.0234 12.4473 13.7764L10.4473 9.77639ZM15 9.5C15.2761 9.5 15.5 9.72386 15.5 10V14C15.5 14.2761 15.2761 14.5 15 14.5C14.7239 14.5 14.5 14.2761 14.5 14V10C14.5 9.72386 14.7239 9.5 15 9.5Z" fill="#47495F"/>
</svg>
