<svg width="24" height="24" viewBox="0 0 24 24" fill="none" xmlns="http://www.w3.org/2000/svg">
<path d="M19.5 7.5C20.3284 7.5 21 6.82843 21 6C21 5.17157 20.3284 4.5 19.5 4.5C18.6716 4.5 18 5.17157 18 6C18 6.13911 18.0189 6.27381 18.0544 6.40164L14.2133 9.09038C13.9871 9.24874 13.9321 9.5605 14.0904 9.78673C14.2488 10.013 14.5605 10.068 14.7868 9.90961L18.6281 7.2207C18.8738 7.39652 19.1748 7.5 19.5 7.5Z" fill="#47495F"/>
<path d="M19.5 16.5C20.3284 16.5 21 17.1716 21 18C21 18.8284 20.3284 19.5 19.5 19.5C18.6716 19.5 18 18.8284 18 18C18 17.8609 18.0189 17.7262 18.0544 17.5984L14.2133 14.9096C13.9871 14.7513 13.9321 14.4395 14.0904 14.2133C14.2488 13.987 14.5605 13.932 14.7868 14.0904L18.6281 16.7793C18.8738 16.6035 19.1748 16.5 19.5 16.5Z" fill="#47495F"/>
<path d="M21 12C21 12.8284 20.3284 13.5 19.5 13.5C18.8469 13.5 18.2913 13.0826 18.0854 12.5H14.5C14.2239 12.5 14 12.2761 14 12C14 11.7239 14.2239 11.5 14.5 11.5H18.0854C18.2913 10.9174 18.8469 10.5 19.5 10.5C20.3284 10.5 21 11.1716 21 12Z" fill="#47495F"/>
<path d="M12.5 5.99999C12.5 5.39902 12.2828 4.83424 11.9115 4.42249C11.8585 4.36367 11.8023 4.30797 11.7431 4.25573C11.2602 3.82921 10.5847 3.64291 9.87881 3.88383C9.22048 4.10851 8.48996 4.47225 7.87485 5.06431C7.78698 5.14888 7.70146 5.23812 7.61885 5.33228C7.12428 5.89596 6.74982 6.61796 6.58792 7.53045C6.58261 7.56038 6.57753 7.59051 6.57268 7.62085C6.78111 7.64033 6.96716 7.67292 7.12129 7.71145C7.38918 7.77843 7.55206 8.0499 7.48509 8.31779C7.41812 8.58569 7.14665 8.74857 6.87875 8.6816C6.74239 8.64751 6.57446 8.6207 6.38651 8.60828C5.97738 8.75512 5.59596 9.04853 5.27868 9.47157C4.80671 10.1009 4.5 10.9932 4.5 12C4.5 13.0068 4.80671 13.8991 5.27868 14.5284C5.75054 15.1576 6.36424 15.5 7 15.5C7.59053 15.5 8.15996 15.2055 8.61676 14.6603C8.79412 14.4487 9.10948 14.4209 9.32114 14.5982C9.53279 14.7756 9.5606 15.091 9.38324 15.3026C8.77853 16.0242 7.94618 16.5 7 16.5C6.83393 16.5 6.67142 16.4854 6.51307 16.4574C6.50452 16.494 6.5 16.5322 6.5 16.5714C6.5 17.7099 6.9821 18.5424 7.66175 19.1266C8.32466 19.6965 9.1633 20.0221 9.89841 20.212C11.366 20.5912 12.5 19.3418 12.5 18V5.99999Z" fill="#47495F"/>
</svg>
