<svg width="24" height="24" viewBox="0 0 24 24" fill="none" xmlns="http://www.w3.org/2000/svg">
<path d="M3.5 6C3.5 4.61929 4.61929 3.5 6 3.5C7.38071 3.5 8.5 4.61929 8.5 6C8.5 7.38071 7.38071 8.5 6 8.5C4.61929 8.5 3.5 7.38071 3.5 6Z" fill="#47495F"/>
<path d="M15.55 5.5C15.7816 4.35888 16.7905 3.5 18 3.5C19.3807 3.5 20.5 4.61929 20.5 6C20.5 7.38071 19.3807 8.5 18 8.5C16.7905 8.5 15.7816 7.64112 15.55 6.5H12.5V18C12.5 18.2761 12.2761 18.5 12 18.5H8.44999C8.21836 19.6411 7.20948 20.5 6 20.5C4.61929 20.5 3.5 19.3807 3.5 18C3.5 16.6193 4.61929 15.5 6 15.5C7.20948 15.5 8.21836 16.3589 8.44999 17.5H11.5V6C11.5 5.72386 11.7239 5.5 12 5.5H15.55Z" fill="#47495F"/>
<path d="M15.5 18C15.5 16.6193 16.6193 15.5 18 15.5C19.3807 15.5 20.5 16.6193 20.5 18C20.5 19.3807 19.3807 20.5 18 20.5C16.6193 20.5 15.5 19.3807 15.5 18Z" fill="#47495F"/>
</svg>
