<svg width="24" height="24" viewBox="0 0 24 24" fill="none" xmlns="http://www.w3.org/2000/svg">
<path d="M6.5 12.5C6.5 9.51442 7.0073 8.0955 7.82925 7.37629C8.59597 6.70541 9.75209 6.52849 11.5 6.50335V11.5H13.5854C13.7913 10.9174 14.3469 10.5 15 10.5C15.8284 10.5 16.5 11.1716 16.5 12C16.5 12.6531 16.0826 13.2087 15.5 13.4146V14.5H18.1843C18.3865 13.8682 18.5 13.1971 18.5 12.5C18.5 9.48558 18.0073 7.6545 16.8293 6.62371C15.6668 5.6066 13.9691 5.5 12 5.5C10.0309 5.5 8.33316 5.6066 7.17075 6.62371C5.9927 7.6545 5.5 9.48558 5.5 12.5C5.5 14.4493 6.38737 16.1951 7.62113 17.4471C8.84831 18.6925 10.4696 19.5 12 19.5C13.5304 19.5 15.1517 18.6925 16.3789 17.4471C16.9299 16.888 17.4118 16.2303 17.7764 15.5H15C14.7239 15.5 14.5 15.2761 14.5 15V13.4146C14.0738 13.264 13.736 12.9262 13.5854 12.5H11.5V18.4642C10.4314 18.3143 9.27523 17.701 8.33342 16.7452C7.24899 15.6448 6.5 14.1406 6.5 12.5Z" fill="#47495F"/>
<path d="M15 11.5C14.7239 11.5 14.5 11.7239 14.5 12C14.5 12.2761 14.7239 12.5 15 12.5C15.2761 12.5 15.5 12.2761 15.5 12C15.5 11.7239 15.2761 11.5 15 11.5Z" fill="#47495F"/>
<path d="M10 12C10 12.2761 9.77614 12.5 9.5 12.5C9.22386 12.5 9 12.2761 9 12C9 11.7239 9.22386 11.5 9.5 11.5C9.77614 11.5 10 11.7239 10 12Z" fill="#47495F"/>
</svg>
