<svg width="24" height="24" viewBox="0 0 24 24" fill="none" xmlns="http://www.w3.org/2000/svg">
<path d="M10.8333 11.3333V9.33333H12.9615C13.6735 9.33333 14.1667 9.82423 14.1667 10.3333C14.1667 10.8424 13.6735 11.3333 12.9615 11.3333H10.8333Z" fill="#47495F"/>
<path d="M10.8333 15.3333L10.8333 12H13.2843C14.1211 12 14.8333 12.7269 14.8333 13.6667C14.8333 14.6065 14.1211 15.3333 13.2843 15.3333H10.8333Z" fill="#47495F"/>
<path fill-rule="evenodd" clip-rule="evenodd" d="M12 20C16.4183 20 20 16.4183 20 12C20 7.58172 16.4183 4 12 4C7.58172 4 4 7.58172 4 12C4 16.4183 7.58172 20 12 20ZM10.8333 7.33333C10.8333 7.14924 10.6841 7 10.5 7C10.3159 7 10.1667 7.14924 10.1667 7.33333V8.66667H9.83333C9.64924 8.66667 9.5 8.8159 9.5 9C9.5 9.1841 9.64924 9.33333 9.83333 9.33333H10.1667V15.3333H9.83333C9.64924 15.3333 9.5 15.4826 9.5 15.6667C9.5 15.8508 9.64924 16 9.83333 16H10.1667V17.3333C10.1667 17.5174 10.3159 17.6667 10.5 17.6667C10.6841 17.6667 10.8333 17.5174 10.8333 17.3333V16H11.5V17.3333C11.5 17.5174 11.6492 17.6667 11.8333 17.6667C12.0174 17.6667 12.1667 17.5174 12.1667 17.3333V16H13.2843C14.5268 16 15.5 14.936 15.5 13.6667C15.5 12.7463 14.9884 11.9339 14.2334 11.5568C14.5975 11.2591 14.8333 10.831 14.8333 10.3333C14.8333 9.36967 13.9489 8.66667 12.9615 8.66667H12.1667V7.33333C12.1667 7.14924 12.0174 7 11.8333 7C11.6492 7 11.5 7.14924 11.5 7.33333V8.66667H10.8333L10.8333 7.33333Z" fill="#47495F"/>
</svg>
