<svg width="24" height="24" viewBox="0 0 24 24" fill="none" xmlns="http://www.w3.org/2000/svg">
<path fill-rule="evenodd" clip-rule="evenodd" d="M12 20C16.4183 20 20 16.4183 20 12C20 7.58172 16.4183 4 12 4C7.58172 4 4 7.58172 4 12C4 16.4183 7.58172 20 12 20ZM7.63085 8.08429C7.46767 7.95572 7.22514 7.97657 7.08916 8.13085C6.95317 8.28513 6.97522 8.51443 7.1384 8.643L9.78398 10.7274C11.0677 11.7388 12.9323 11.7388 14.216 10.7274L16.8616 8.643C17.0248 8.51443 17.0468 8.28513 16.9108 8.13085C16.7749 7.97657 16.5323 7.95572 16.3692 8.08429L13.7236 10.1687C12.7251 10.9553 11.2749 10.9553 10.2764 10.1687L7.63085 8.08429ZM7.63085 15.9157C7.46767 16.0443 7.22514 16.0234 7.08916 15.8691C6.95317 15.7149 6.97522 15.4856 7.1384 15.357L9.78398 13.2726C11.0677 12.2612 12.9323 12.2612 14.216 13.2726L16.8616 15.357C17.0248 15.4856 17.0468 15.7149 16.9108 15.8691C16.7749 16.0234 16.5323 16.0443 16.3692 15.9157L13.7236 13.8313C12.7251 13.0447 11.2749 13.0447 10.2764 13.8313L7.63085 15.9157Z" fill="#47495F"/>
</svg>
