<svg width="24" height="24" viewBox="0 0 24 24" fill="none" xmlns="http://www.w3.org/2000/svg">
<path d="M11.7371 7.07468C11.8845 6.98357 12.0686 6.97529 12.2236 7.05279L16.2236 9.05279C16.3971 9.13955 16.5048 9.31886 16.4998 9.51281C16.4949 9.70675 16.3782 9.88032 16.2004 9.95808L12.5 11.577V14.5054C15.7244 14.5752 18.7204 15.3179 21.2212 16.5516C21.4688 16.6738 21.5706 16.9736 21.4484 17.2212C21.3262 17.4689 21.0264 17.5706 20.7788 17.4484C18.2947 16.223 15.2702 15.5 12 15.5C8.7298 15.5 5.70524 16.223 3.22119 17.4484C2.97355 17.5706 2.67375 17.4689 2.55158 17.2212C2.42941 16.9736 2.53114 16.6738 2.77879 16.5516C5.27959 15.3179 8.27556 14.5752 11.5 14.5054V7.5C11.5 7.32671 11.5897 7.16578 11.7371 7.07468Z" fill="#47495F"/>
<path d="M7.38311 16.8861C6.88188 16.9704 6.42725 17.1813 6.10084 17.4804C5.77875 17.7754 5.53383 18.2092 5.61711 18.7043C5.7004 19.1993 6.07375 19.5291 6.47467 19.7025C6.88095 19.8783 7.37956 19.9289 7.8808 19.8445C8.38203 19.7602 8.83666 19.5493 9.16307 19.2503C9.48516 18.9552 9.73008 18.5215 9.6468 18.0264C9.56351 17.5313 9.19015 17.2016 8.78924 17.0281C8.38296 16.8523 7.88434 16.8018 7.38311 16.8861Z" fill="#47495F"/>
<path d="M17.5 18C17.7761 18 18 17.7761 18 17.5C18 17.2239 17.7761 17 17.5 17C17.2239 17 17 17.2239 17 17.5C17 17.7761 17.2239 18 17.5 18Z" fill="#47495F"/>
</svg>
