<svg width="24" height="24" viewBox="0 0 24 24" fill="none" xmlns="http://www.w3.org/2000/svg">
<path fill-rule="evenodd" clip-rule="evenodd" d="M19.3536 12.3536C19.5489 12.5488 19.5489 12.8654 19.3536 13.0607L16.0607 16.3536C15.8654 16.5488 15.5489 16.5488 15.3536 16.3536C15.1583 16.1583 15.1583 15.8417 15.3536 15.6464L18.6465 12.3536C18.8418 12.1583 19.1583 12.1583 19.3536 12.3536Z" fill="#47495F"/>
<path d="M20.1874 3.62338C20.4278 3.64523 20.6183 3.83568 20.6401 4.07605L20.6544 4.23353C20.8828 6.7458 19.9835 9.22972 18.1998 11.0135L10.5962 18.617C10.401 18.8123 10.0844 18.8123 9.88913 18.617L7.34322 16.0711L4.06075 19.3536C3.86549 19.5488 3.54891 19.5488 3.35365 19.3536C3.15838 19.1583 3.15838 18.8417 3.35365 18.6464L6.63611 15.364L5.64649 14.3744C5.45123 14.1791 5.45123 13.8625 5.64649 13.6673L13.25 6.06374C15.0338 4.27998 17.5177 3.38067 20.03 3.60906L20.1874 3.62338Z" fill="#47495F"/>
<path fill-rule="evenodd" clip-rule="evenodd" d="M5.3536 11.3536C5.54886 11.5488 5.54886 11.8654 5.3536 12.0607L4.06071 13.3536C3.86544 13.5488 3.54886 13.5488 3.3536 13.3536C3.15834 13.1583 3.15834 12.8417 3.3536 12.6464L4.64649 11.3536C4.84176 11.1583 5.15834 11.1583 5.3536 11.3536Z" fill="#47495F"/>
<path fill-rule="evenodd" clip-rule="evenodd" d="M8.3536 17.8536C8.54886 18.0488 8.54886 18.3654 8.3536 18.5607L7.06071 19.8536C6.86544 20.0488 6.54886 20.0488 6.3536 19.8536C6.15834 19.6583 6.15834 19.3417 6.3536 19.1464L7.64649 17.8536C7.84175 17.6583 8.15834 17.6583 8.3536 17.8536Z" fill="#47495F"/>
</svg>
