<svg width="24" height="24" viewBox="0 0 24 24" fill="none" xmlns="http://www.w3.org/2000/svg">
<path fill-rule="evenodd" clip-rule="evenodd" d="M11 21.5C11 21.2239 11.2239 21 11.5 21H12.5C12.7762 21 13 21.2239 13 21.5C13 21.7761 12.7762 22 12.5 22H11.5C11.2239 22 11 21.7761 11 21.5Z" fill="#47495F"/>
<path d="M12.3201 2.61589C12.1347 2.46137 11.8654 2.46137 11.6799 2.61589L11.5585 2.71712C9.62052 4.33207 8.50003 6.72437 8.50003 9.247V13.25L6.7 14.6C6.5741 14.6944 6.5 14.8426 6.5 15V20C6.5 20.2761 6.72386 20.5 7 20.5C7.27614 20.5 7.5 20.2761 7.5 20V15.25L8.50003 14.5V20C8.50003 20.2761 8.72389 20.5 9.00003 20.5H15C15.2762 20.5 15.5 20.2761 15.5 20V14.5L16.5001 15.25V20C16.5001 20.2761 16.7239 20.5 17.0001 20.5C17.2762 20.5 17.5001 20.2761 17.5001 20V15C17.5001 14.8426 17.426 14.6944 17.3001 14.6L15.5 13.25V9.247C15.5 6.72437 14.3795 4.33207 12.4416 2.71712L12.3201 2.61589Z" fill="#47495F"/>
</svg>
