<svg width="24" height="24" viewBox="0 0 24 24" fill="none" xmlns="http://www.w3.org/2000/svg">
<path fill-rule="evenodd" clip-rule="evenodd" d="M8.9689 6.73462C9.73023 6.52011 10.7096 6.50099 11.8906 6.50004L11.9453 6.50001L12 6.50004C13.181 6.50099 14.1604 6.52011 14.9217 6.73462C15.3274 6.84892 15.6912 7.02304 16.0023 7.29183C16.314 7.56117 16.5491 7.90502 16.7263 8.32489C17.0996 9.20937 17.0746 10.3299 16.751 11.6371C16.4252 12.9528 15.7809 14.521 14.8345 16.3461C14.8288 16.3571 14.8227 16.3679 14.8162 16.3785C14.4082 17.0396 13.7945 17.3149 13.2379 17.4253C12.8008 17.5119 12.3524 17.5026 12.0587 17.4965C12.0177 17.4957 11.9798 17.4949 11.9453 17.4945C11.9108 17.4949 11.8729 17.4957 11.832 17.4965C11.5382 17.5026 11.0899 17.5119 10.6528 17.4253C10.0961 17.3149 9.48238 17.0396 9.07447 16.3785C9.06795 16.3679 9.06183 16.3571 9.05611 16.3461C8.10972 14.521 7.46542 12.9528 7.13965 11.6371C6.81598 10.3299 6.79102 9.20937 7.16434 8.32489C7.34156 7.90502 7.57659 7.56117 7.88834 7.29183C8.19944 7.02304 8.56324 6.84892 8.9689 6.73462ZM11.5 13.5C11.5 13.2239 11.2761 13 11 13C10.7239 13 10.5 13.2239 10.5 13.5C10.5 14.3284 11.1716 15 12 15C12.8284 15 13.5 14.3284 13.5 13.5C13.5 13.2239 13.2761 13 13 13C12.7239 13 12.5 13.2239 12.5 13.5C12.5 13.7761 12.2761 14 12 14C11.7239 14 11.5 13.7761 11.5 13.5Z" fill="#47495F"/>
<path fill-rule="evenodd" clip-rule="evenodd" d="M9.19459 20.5C8.27636 20.5 7.42203 19.9951 7.00833 19.1582C6.87516 18.8888 6.72379 18.5766 6.56149 18.2315L5.01525 19.4685C4.79962 19.641 4.48497 19.6061 4.31246 19.3904C4.13996 19.1748 4.17492 18.8602 4.39055 18.6876L6.10968 17.3123C6.11715 17.3064 6.12473 17.3006 6.13243 17.2952C5.80278 16.556 5.45621 15.73 5.14093 14.8822C4.5223 13.2188 4 11.4099 4 10C4 8.11452 4.67866 6.51435 5.33715 5.40335C6.13121 4.06361 7.63103 3.5 9.07109 3.5H15.3561C16.7359 3.5 18.1745 4.01471 18.9891 5.26368C19.7161 6.37849 20.5 8.03348 20.5 10C20.5 11.4277 19.9317 13.2593 19.2645 14.9345C18.9432 15.741 18.5925 16.5267 18.2567 17.2356C18.3038 17.2537 18.349 17.2792 18.3904 17.3123L20.1096 18.6876C20.3252 18.8602 20.3602 19.1748 20.1876 19.3904C20.0151 19.6061 19.7005 19.641 19.4849 19.4685L17.819 18.1358C17.6146 18.5456 17.4249 18.9121 17.2623 19.2197C16.8371 20.0239 16.0021 20.5 15.109 20.5H9.19459ZM6.1974 5.91321C6.75559 4.97145 7.85901 4.5 9.07109 4.5H15.3561C16.5168 4.5 17.5782 4.93092 18.1514 5.80995C18.8188 6.83325 19.5 8.29769 19.5 10C19.5 11.2223 18.9982 12.9007 18.3354 14.5644C17.6797 16.2106 16.8939 17.7771 16.3783 18.7523C16.134 19.2144 15.6481 19.5 15.109 19.5L9.19459 19.5C8.64128 19.5 8.14316 19.1973 7.90479 18.7151C7.41701 17.7283 6.68609 16.1682 6.07821 14.5336C5.46437 12.8831 5 11.2182 5 10C5 8.35327 5.59447 6.93048 6.1974 5.91321Z" fill="#47495F"/>
</svg>
