<svg width="24" height="24" viewBox="0 0 24 24" fill="none" xmlns="http://www.w3.org/2000/svg">
<path d="M14.5 11C14.5 10.7239 14.7239 10.5 15 10.5C15.2761 10.5 15.5 10.7239 15.5 11C15.5 11.2761 15.2761 11.5 15 11.5C14.7239 11.5 14.5 11.2761 14.5 11Z" fill="#47495F"/>
<path fill-rule="evenodd" clip-rule="evenodd" d="M12.5 5.5H14C16.4853 5.5 18.5 7.51472 18.5 10V13.5H14C13.1716 13.5 12.5 12.8284 12.5 12V5.5ZM15 9.5C14.1716 9.5 13.5 10.1716 13.5 11C13.5 11.8284 14.1716 12.5 15 12.5C15.8284 12.5 16.5 11.8284 16.5 11C16.5 10.1716 15.8284 9.5 15 9.5Z" fill="#47495F"/>
<path fill-rule="evenodd" clip-rule="evenodd" d="M6 12.5C6 6.75543 7.83333 6.05253 11.5 6.0031V12C11.5 13.3807 12.6193 14.5 14 14.5H17.6571C16.7483 17.1113 14.1971 19 12 19C9.27273 19 6 16.0898 6 12.5ZM9.5 11.5C9.77614 11.5 10 11.2761 10 11C10 10.7239 9.77614 10.5 9.5 10.5C9.22386 10.5 9 10.7239 9 11C9 11.2761 9.22386 11.5 9.5 11.5Z" fill="#47495F"/>
</svg>
