<svg width="24" height="24" viewBox="0 0 24 24" fill="none" xmlns="http://www.w3.org/2000/svg">
<path d="M15 11.5C14.7239 11.5 14.5 11.7239 14.5 12C14.5 12.2761 14.7239 12.5 15 12.5C15.2761 12.5 15.5 12.2761 15.5 12C15.5 11.7239 15.2761 11.5 15 11.5Z" fill="#47495F"/>
<path d="M8.5 12C8.5 11.7239 8.72386 11.5 9 11.5C9.27614 11.5 9.5 11.7239 9.5 12C9.5 12.2761 9.27614 12.5 9 12.5C8.72386 12.5 8.5 12.2761 8.5 12Z" fill="#47495F"/>
<path fill-rule="evenodd" clip-rule="evenodd" d="M10 6.08141C7.33333 6.36871 6 7.60102 6 12.5C6 16.0898 9.27273 19 12 19C14.377 19 18 16.5 18 12.5C18 7.60102 16.6667 6.36871 14 6.08141V8C14 8.55228 13.5523 9 13 9H11C10.4477 9 10 8.55228 10 8V6.08141ZM13.5 12C13.5 11.1716 14.1716 10.5 15 10.5C15.8284 10.5 16.5 11.1716 16.5 12C16.5 12.8284 15.8284 13.5 15 13.5C14.1716 13.5 13.5 12.8284 13.5 12ZM9 10.5C8.17157 10.5 7.5 11.1716 7.5 12C7.5 12.8284 8.17157 13.5 9 13.5C9.82843 13.5 10.5 12.8284 10.5 12C10.5 11.1716 9.82843 10.5 9 10.5Z" fill="#47495F"/>
</svg>
