<svg width="24" height="24" viewBox="0 0 24 24" fill="none" xmlns="http://www.w3.org/2000/svg">
<path d="M6.5 8.5H4.5C3.11929 8.5 2 9.61929 2 11V15.5C2 16.8807 3.11929 18 4.5 18H19.5C20.8807 18 22 16.8807 22 15.5V11C22 9.61929 20.8807 8.5 19.5 8.5H17.5V12.3684C17.5 12.5541 17.3972 12.7244 17.2329 12.8109L12.2329 15.4425C12.0871 15.5192 11.9129 15.5192 11.7671 15.4425L6.76713 12.8109C6.60285 12.7244 6.5 12.5541 6.5 12.3684V8.5Z" fill="#47495F"/>
<path d="M11.5 9.70745L7.5 7.88289V12.0666L11.5 14.1718V9.70745Z" fill="#47495F"/>
<path d="M16.5 12.0666L12.5 14.1718V9.70745L16.5 7.88289V12.0666Z" fill="#47495F"/>
<path d="M15.755 7.12358L12 8.83641L8.24496 7.12358L12 5.54251L15.755 7.12358Z" fill="#47495F"/>
</svg>
