<svg width="24" height="24" viewBox="0 0 24 24" fill="none" xmlns="http://www.w3.org/2000/svg">
<path d="M6.5 11.2229L2.735 13.576C2.58492 13.6698 2.49561 13.836 2.50017 14.0129C2.50472 14.1898 2.60247 14.3511 2.75718 14.4371L11.7572 19.4371C11.9147 19.5246 12.107 19.5206 12.2607 19.4266L21.2607 13.9266C21.4158 13.8319 21.5073 13.6604 21.4995 13.4788C21.4918 13.2972 21.3862 13.1341 21.2236 13.0528L17.5 11.191V13.1053C17.5 13.2837 17.4049 13.4486 17.2505 13.538L12.2505 16.4327C12.0956 16.5224 11.9044 16.5224 11.7495 16.4327L6.74948 13.538C6.59507 13.4486 6.5 13.2837 6.5 13.1053V11.2229Z" fill="#47495F"/>
<path d="M11.5 10.1331L7.5 8.12608V12.817L11.5 15.1328V10.1331Z" fill="#47495F"/>
<path d="M16.5 12.817L12.5 15.1328V10.1331L16.5 8.12608V12.817Z" fill="#47495F"/>
<path d="M15.8492 7.33381L12 9.26515L8.15081 7.33381L12 5.55103L15.8492 7.33381Z" fill="#47495F"/>
</svg>
