<svg width="24" height="24" viewBox="0 0 24 24" fill="none" xmlns="http://www.w3.org/2000/svg">
<path d="M7 9.37521V14.6053L11.5 17.2105V11.6331L7 9.37521Z" fill="#47495F"/>
<path d="M7.57975 8.54728L12 10.7652L16.4203 8.54728L12 6.5L7.57975 8.54728Z" fill="#47495F"/>
<path d="M17 9.37521L12.5 11.6331V17.2105L17 14.6053V9.37521Z" fill="#47495F"/>
<path fill-rule="evenodd" clip-rule="evenodd" d="M2.5 3C2.5 2.72386 2.72386 2.5 3 2.5H6C6.27614 2.5 6.5 2.72386 6.5 3C6.5 3.27614 6.27614 3.5 6 3.5H3.5V6C3.5 6.27614 3.27614 6.5 3 6.5C2.72386 6.5 2.5 6.27614 2.5 6V3Z" fill="#47495F"/>
<path fill-rule="evenodd" clip-rule="evenodd" d="M21 2.5C21.2761 2.5 21.5 2.72386 21.5 3V6C21.5 6.27614 21.2761 6.5 21 6.5C20.7239 6.5 20.5 6.27614 20.5 6V3.5L18 3.5C17.7239 3.5 17.5 3.27614 17.5 3C17.5 2.72386 17.7239 2.5 18 2.5L21 2.5Z" fill="#47495F"/>
<path fill-rule="evenodd" clip-rule="evenodd" d="M3 21.5C2.72386 21.5 2.5 21.2761 2.5 21L2.5 18C2.5 17.7239 2.72386 17.5 3 17.5C3.27614 17.5 3.5 17.7239 3.5 18L3.5 20.5H6C6.27614 20.5 6.5 20.7239 6.5 21C6.5 21.2761 6.27614 21.5 6 21.5H3Z" fill="#47495F"/>
<path fill-rule="evenodd" clip-rule="evenodd" d="M21.5 21C21.5 21.2761 21.2761 21.5 21 21.5H18C17.7239 21.5 17.5 21.2761 17.5 21C17.5 20.7239 17.7239 20.5 18 20.5H20.5V18C20.5 17.7239 20.7239 17.5 21 17.5C21.2761 17.5 21.5 17.7239 21.5 18V21Z" fill="#47495F"/>
</svg>
