<svg width="24" height="24" viewBox="0 0 24 24" fill="none" xmlns="http://www.w3.org/2000/svg">
<path d="M12.5 8.5H11.5V12C11.5 12.8284 10.8284 13.5 10 13.5H7C6.17157 13.5 5.5 12.8284 5.5 12V8.5H4C2.89543 8.5 2 9.39543 2 10.5V16C2 17.1046 2.89543 18 4 18H20C21.1046 18 22 17.1046 22 16V10.5C22 9.39543 21.1046 8.5 20 8.5H18.5V12C18.5 12.8284 17.8284 13.5 17 13.5H14C13.1716 13.5 12.5 12.8284 12.5 12V8.5Z" fill="#47495F"/>
<path d="M13.5 5C13.5 4.72386 13.7239 4.5 14 4.5H17C17.2761 4.5 17.5 4.72386 17.5 5V12C17.5 12.2761 17.2761 12.5 17 12.5H14C13.7239 12.5 13.5 12.2761 13.5 12V5Z" fill="#47495F"/>
<path d="M7 6.5C6.72386 6.5 6.5 6.72386 6.5 7V12C6.5 12.2761 6.72386 12.5 7 12.5H10C10.2761 12.5 10.5 12.2761 10.5 12V7C10.5 6.72386 10.2761 6.5 10 6.5H7Z" fill="#47495F"/>
</svg>
