<svg width="24" height="24" viewBox="0 0 24 24" fill="none" xmlns="http://www.w3.org/2000/svg">
<path fill-rule="evenodd" clip-rule="evenodd" d="M12 20C16.4183 20 20 16.4183 20 12C20 7.58172 16.4183 4 12 4C7.58172 4 4 7.58172 4 12C4 16.4183 7.58172 20 12 20ZM9.72222 8.5C9.50745 8.5 9.33333 8.67411 9.33333 8.88889C9.33333 9.10367 9.50745 9.27778 9.72222 9.27778H15.5077C16.2667 9.27778 16.8236 9.99107 16.6395 10.7274L15.8617 13.8385C15.7319 14.3579 15.2652 14.7222 14.7299 14.7222H8.16667C7.95189 14.7222 7.77778 14.8963 7.77778 15.1111C7.77778 15.3259 7.95189 15.5 8.16667 15.5H14.7299C15.6221 15.5 16.3999 14.8928 16.6163 14.0272L17.3941 10.916C17.7009 9.68881 16.7727 8.5 15.5077 8.5H9.72222ZM7.38889 11.6111C7.17411 11.6111 7 11.7852 7 12C7 12.2148 7.17411 12.3889 7.38889 12.3889H10.5C10.7148 12.3889 10.8889 12.2148 10.8889 12C10.8889 11.7852 10.7148 11.6111 10.5 11.6111H7.38889Z" fill="#47495F"/>
</svg>
