<svg width="24" height="24" viewBox="0 0 24 24" fill="none" xmlns="http://www.w3.org/2000/svg">
<path fill-rule="evenodd" clip-rule="evenodd" d="M12 20C16.4183 20 20 16.4183 20 12C20 7.58172 16.4183 4 12 4C7.58172 4 4 7.58172 4 12C4 16.4183 7.58172 20 12 20ZM12.6544 6.51239C12.86 6.56592 12.9832 6.77595 12.9297 6.98151L11.8498 11.128L13.1203 10.7469C13.3238 10.6859 13.5382 10.8013 13.5992 11.0048C13.6603 11.2082 13.5448 11.4226 13.3413 11.4837L11.623 11.9992L10.6513 15.7307H15.5382C15.7506 15.7307 15.9228 15.9029 15.9228 16.1153C15.9228 16.3277 15.7506 16.4999 15.5382 16.4999H10.1537C10.0346 16.4999 9.92218 16.4447 9.84935 16.3505C9.77651 16.2562 9.75144 16.1336 9.78146 16.0183L10.7607 12.2579L9.49523 12.6375C9.29177 12.6986 9.07736 12.5831 9.01632 12.3796C8.95529 12.1762 9.07074 11.9618 9.2742 11.9007L10.9876 11.3867L12.1853 6.78766C12.2388 6.5821 12.4488 6.45885 12.6544 6.51239Z" fill="#47495F"/>
</svg>
