<svg width="24" height="24" viewBox="0 0 24 24" fill="none" xmlns="http://www.w3.org/2000/svg">
<path fill-rule="evenodd" clip-rule="evenodd" d="M5 8C3.89543 8 3 8.89543 3 10V14C3 15.1046 3.89543 16 5 16H8.33494C8.52731 16 8.71867 15.9722 8.90311 15.9176L11.4318 15.1683C11.8026 15.0585 12.1974 15.0585 12.5682 15.1683L15.0969 15.9176C15.2813 15.9722 15.4727 16 15.6651 16H19C20.1046 16 21 15.1046 21 14V10C21 8.89543 20.1046 8 19 8H5ZM10.5 10C10.2239 10 10 10.2239 10 10.5C10 10.7761 10.2239 11 10.5 11H13.5C13.7761 11 14 10.7761 14 10.5C14 10.2239 13.7761 10 13.5 10H10.5Z" fill="#47495F"/>
</svg>
