<svg width="24" height="24" viewBox="0 0 24 24" fill="none" xmlns="http://www.w3.org/2000/svg">
<path d="M4 10C4 8.89543 4.89543 8 6 8H18C19.1046 8 20 8.89543 20 10V14C20 15.1046 19.1046 16 18 16H12.5V17.5C12.5 17.7761 12.2761 18 12 18C11.7239 18 11.5 17.7761 11.5 17.5V16H6C4.89543 16 4 15.1046 4 14V10Z" fill="#47495F"/>
<path d="M3 9.5C3 9.22386 2.77614 9 2.5 9C2.22386 9 2 9.22386 2 9.5V14.5C2 14.7761 2.22386 15 2.5 15C2.77614 15 3 14.7761 3 14.5L3 9.5Z" fill="#47495F"/>
<path d="M21.5 9C21.7761 9 22 9.22386 22 9.5V14.5C22 14.7761 21.7761 15 21.5 15C21.2239 15 21 14.7761 21 14.5V9.5C21 9.22386 21.2239 9 21.5 9Z" fill="#47495F"/>
</svg>
