<svg width="24" height="24" viewBox="0 0 24 24" fill="none" xmlns="http://www.w3.org/2000/svg">
<path d="M6 8C4.89543 8 4 8.89543 4 10V14C4 15.1046 4.89543 16 6 16H8.67544C8.89041 16 9.10397 15.9653 9.3079 15.8974L11.3675 15.2108C11.7781 15.074 12.2219 15.074 12.6325 15.2108L14.6921 15.8974C14.896 15.9653 15.1096 16 15.3246 16H18C19.1046 16 20 15.1046 20 14V10C20 8.89543 19.1046 8 18 8H6Z" fill="#47495F"/>
<path d="M2.5 9C2.77614 9 3 9.22386 3 9.5L3 14.5C3 14.7761 2.77614 15 2.5 15C2.22386 15 2 14.7761 2 14.5V9.5C2 9.22386 2.22386 9 2.5 9Z" fill="#47495F"/>
<path d="M22 9.5C22 9.22386 21.7761 9 21.5 9C21.2239 9 21 9.22386 21 9.5V14.5C21 14.7761 21.2239 15 21.5 15C21.7761 15 22 14.7761 22 14.5V9.5Z" fill="#47495F"/>
</svg>
