<svg width="24" height="24" viewBox="0 0 24 24" fill="none" xmlns="http://www.w3.org/2000/svg">
<path fill-rule="evenodd" clip-rule="evenodd" d="M5.5 6.42857C5.5 5.91574 5.91574 5.5 6.42857 5.5H9.21429C9.72712 5.5 10.1429 5.91574 10.1429 6.42857V7.35714H13.8571V6.42857C13.8571 5.91574 14.2729 5.5 14.7857 5.5H17.5714C18.0843 5.5 18.5 5.91574 18.5 6.42857V9.21429C18.5 9.72712 18.0843 10.1429 17.5714 10.1429H16.6429V13.8571H17.5714C18.0843 13.8571 18.5 14.2729 18.5 14.7857V17.5714C18.5 18.0843 18.0843 18.5 17.5714 18.5H14.7857C14.2729 18.5 13.8571 18.0843 13.8571 17.5714V16.6429H10.1429V17.5714C10.1429 18.0843 9.72712 18.5 9.21429 18.5H6.42857C5.91574 18.5 5.5 18.0843 5.5 17.5714V14.7857C5.5 14.2729 5.91574 13.8571 6.42857 13.8571H7.35714V10.1429H6.42857C5.91574 10.1429 5.5 9.72712 5.5 9.21429V6.42857ZM8.28571 10.1429V13.8571H9.21429C9.72712 13.8571 10.1429 14.2729 10.1429 14.7857V15.7143H13.8571V14.7857C13.8571 14.2729 14.2729 13.8571 14.7857 13.8571H15.7143V10.1429H14.7857C14.2729 10.1429 13.8571 9.72712 13.8571 9.21429V8.28571H10.1429V9.21429C10.1429 9.72712 9.72712 10.1429 9.21429 10.1429H8.28571Z" fill="#47495F"/>
</svg>
