<svg width="24" height="24" viewBox="0 0 24 24" fill="none" xmlns="http://www.w3.org/2000/svg">
<path d="M11.5 4.5C11.5 4.22386 11.2761 4 11 4C10.7239 4 10.5 4.22386 10.5 4.5V9C9.67157 9 9 9.67157 9 10.5V11.5H6.5C6.47174 11.5 6.44403 11.5023 6.41705 11.5068C6.21308 10.9207 5.65567 10.5 5 10.5C4.17157 10.5 3.5 11.1716 3.5 12C3.5 12.8284 4.17157 13.5 5 13.5C5.65567 13.5 6.21308 13.0793 6.41705 12.4932C6.44403 12.4977 6.47174 12.5 6.5 12.5H9V13.5C9 14.3284 9.67157 15 10.5 15V17C10.5 17.2761 10.7239 17.5 11 17.5C11.2761 17.5 11.5 17.2761 11.5 17V15H12.5V19.5C12.5 19.7761 12.7239 20 13 20C13.2761 20 13.5 19.7761 13.5 19.5V15C14.3284 15 15 14.3284 15 13.5V12.5H17.5C17.5283 12.5 17.556 12.4977 17.583 12.4932C17.7869 13.0793 18.3443 13.5 19 13.5C19.8284 13.5 20.5 12.8284 20.5 12C20.5 11.1716 19.8284 10.5 19 10.5C18.3443 10.5 17.7869 10.9207 17.583 11.5068C17.556 11.5023 17.5283 11.5 17.5 11.5H15V10.5C15 9.67157 14.3284 9 13.5 9V7C13.5 6.72386 13.2761 6.5 13 6.5C12.7239 6.5 12.5 6.72386 12.5 7V9H11.5V4.5Z" fill="#47495F"/>
</svg>
