<svg width="24" height="24" viewBox="0 0 24 24" fill="none" xmlns="http://www.w3.org/2000/svg">
<path fill-rule="evenodd" clip-rule="evenodd" d="M5.06693 15.147C4.65272 14.4296 4.89854 13.5122 5.61597 13.098L7.80841 11.8322C8.04755 11.6941 8.35335 11.7761 8.49142 12.0152C8.62949 12.2544 8.54755 12.5601 8.30841 12.6982L6.11597 13.964C5.87683 14.1021 5.79489 14.4079 5.93296 14.647L7.19876 16.8395C7.38577 17.1634 7.79994 17.2743 8.12384 17.0873L13.2213 14.1443C13.5452 13.9573 13.6561 13.5432 13.4691 13.2193L11.7033 10.1608L12.5694 9.6608L14.3352 12.7193C14.7983 13.5215 14.5235 14.5472 13.7213 15.0104L8.62384 17.9534C7.82164 18.4165 6.79588 18.1417 6.33274 17.3395L5.06693 15.147Z" fill="#47495F"/>
<path fill-rule="evenodd" clip-rule="evenodd" d="M9.66454 10.9448C9.2014 10.1427 9.47625 9.1169 10.2784 8.65375L15.3759 5.71075C16.1781 5.2476 17.2038 5.52245 17.667 6.32464L18.9328 8.51708C19.347 9.23452 19.1012 10.1519 18.3837 10.5661L16.1913 11.8319C15.9522 11.97 15.6464 11.8881 15.5083 11.6489C15.3702 11.4098 15.4522 11.104 15.6913 10.9659L17.8837 9.70009C18.1229 9.56202 18.2048 9.25622 18.0668 9.01708L16.801 6.82464C16.6139 6.50074 16.1998 6.38977 15.8759 6.57677L10.7784 9.51977C10.4545 9.70678 10.3436 10.1209 10.5306 10.4448L12.2964 13.5033L11.4303 14.0033L9.66454 10.9448Z" fill="#47495F"/>
</svg>
