<svg width="24" height="24" viewBox="0 0 24 24" fill="none" xmlns="http://www.w3.org/2000/svg">
<path d="M13.4805 6.81242C12.5143 5.91334 11.4192 5.15057 10.2236 4.55278L9.77637 5.44721C10.8752 5.99661 11.8826 6.69616 12.7729 7.52002L4.14645 16.1464C3.95118 16.3417 3.95118 16.6583 4.14645 16.8536C4.34171 17.0488 4.65829 17.0488 4.85355 16.8536L13.48 8.22713C14.3038 9.11737 15.0034 10.1248 15.5528 11.2236L16.4472 10.7764C15.8494 9.58082 15.0866 8.48565 14.1876 7.51953L14.3536 7.35355C14.5488 7.15829 14.5488 6.84171 14.3536 6.64645C14.1583 6.45118 13.8417 6.45118 13.6464 6.64645L13.4805 6.81242Z" fill="#47495F"/>
<path d="M19 16C19 17.6569 17.6569 19 16 19C14.3431 19 13 17.6569 13 16C13 14.3431 14.3431 13 16 13C17.6569 13 19 14.3431 19 16Z" fill="#47495F"/>
</svg>
