<svg width="24" height="24" viewBox="0 0 24 24" fill="none" xmlns="http://www.w3.org/2000/svg">
<path d="M11.6329 11.9658C13.1569 9.32622 15.8904 8.45761 17.3144 8.31805C17.9056 9.62108 18.5201 12.4227 16.9962 15.0623C16.1785 16.4786 15.2231 17.0311 14.4026 17.1962C13.9828 17.2806 13.5821 17.2669 13.2326 17.2012L15.939 12.2394C16.0713 11.997 15.9819 11.6933 15.7395 11.5611C15.4971 11.4288 15.1934 11.5182 15.0611 11.7606L13.6457 14.3556L13.4745 13.8419C13.3872 13.5799 13.104 13.4383 12.842 13.5257C12.58 13.613 12.4385 13.8961 12.5258 14.1581L12.9914 15.555L12.2878 16.845C11.9471 16.6284 11.5345 16.2363 11.2531 15.6854C11.1881 15.5583 11.1302 15.4227 11.0817 15.2788C11.0796 15.2726 11.0775 15.2664 11.0755 15.2602C10.8379 14.5394 10.8225 13.5651 11.4339 12.3359C11.494 12.215 11.5602 12.0916 11.6329 11.9658Z" fill="#47495F"/>
<path d="M5.90786 10.9079C6.62946 10.6984 8.71305 10.5234 10.6179 11.7357C9.81914 13.2526 9.78417 14.56 10.1341 15.5982C10.2776 16.0239 10.4827 16.3954 10.716 16.7108C9.93223 17.197 8.55882 17.3746 7.14797 15.9637C5.46905 14.2848 5.62167 11.8936 5.90786 10.9079Z" fill="#47495F"/>
</svg>
