<svg width="24" height="24" viewBox="0 0 24 24" fill="none" xmlns="http://www.w3.org/2000/svg">
<path d="M17.2381 5.5267C16.4671 5.64508 15.1664 6.12915 14.4227 7.41734C14.3681 7.51182 14.3208 7.60315 14.2799 7.69137C14.0025 8.29108 14.0263 8.74698 14.1354 9.07059C14.1878 9.22629 14.2636 9.36184 14.3483 9.47588C14.4772 9.64957 14.6269 9.77333 14.7465 9.84237C14.9446 9.95674 15.314 10.0675 15.7204 9.9857C16.1044 9.90843 16.5832 9.64703 17.0085 8.91031C17.7523 7.62212 17.5212 6.25366 17.2381 5.5267Z" fill="#47495F"/>
<path d="M11.4792 7.15005C11.8941 7.10817 12.5949 7.14332 13.2672 7.52146C12.9991 8.22786 13.009 8.85954 13.1877 9.38996C13.2117 9.46107 13.2385 9.52969 13.2677 9.59582C13.1901 9.61921 13.1027 9.6332 13.0081 9.63161C12.7815 9.62778 12.4638 9.53347 12.0981 9.16776C11.4794 8.54909 11.4098 7.68826 11.4792 7.15005Z" fill="#47495F"/>
<path d="M12.9513 18C11.8351 18 7.08131 17.4315 6 16.863V13.452C12.4878 14.0205 14.3415 12.1947 14.8049 13.452C15.2683 14.7092 13.1057 15.347 11.561 15.1575C15.2683 16.2945 18.5122 12.8835 18.9757 14.0205C19.3522 14.9444 15.2683 18 12.9513 18Z" fill="#47495F"/>
</svg>
